<?xml version="1.0" encoding="utf-8" standalone="yes"?>
<!DOCTYPE svg PUBLIC "-//W3C//DTD SVG 1.1//EN" "http://www.w3.org/Graphics/SVG/1.1/DTD/svg11.dtd">
<svg width="768" height="562" viewBox="0 0 768 562" style="fill:none;stroke:none;fill-rule:evenodd;clip-rule:evenodd;stroke-linecap:round;stroke-linejoin:round;stroke-miterlimit:1.5;" version="1.1" xmlns="http://www.w3.org/2000/svg" xmlns:xlink="http://www.w3.org/1999/xlink"><style class="text-font-style fontImports" data-font-family="Roboto">@import url('https://fonts.googleapis.com/css2?family=Roboto:wght@400;700&amp;display=block');</style><g id="items" style="isolation: isolate"><g id="blend" style="mix-blend-mode: normal"><g id="g-root-cp_0_g-0_zko97n1wbdekq-fill" data-item-order="-328310" transform="translate(254, 182)"><g id="cp_0_g-0_zko97n1wbdekq-fill" stroke="none" fill="#f5f5f5"><g><path d="M 250 130C 250 196.274 196.274 250 130 250C 63.7258 250 10 196.274 10 130C 10 63.7258 63.7258 10 130 10C 196.274 10 250 63.7258 250 130Z"></path></g></g></g><g id="g-root-cp_4_g-4_zko97n1wbdeks-fill" data-item-order="-328306" transform="translate(182, 110)"><g id="cp_4_g-4_zko97n1wbdeks-fill" stroke="none" fill="#fff2e5"><g><path d="M 94 10C 47.6081 10 10 47.6081 10 94C 10 137.183 42.5856 172.756 84.5093 177.47C 94.1869 130.879 130.879 94.1869 177.47 84.5093C 172.756 42.5856 137.183 10 94 10Z"></path></g></g></g><g id="g-root-cp_3_g-3_v4ur371wbdfd2-fill" data-item-order="-328300" transform="translate(182, 326)"><g id="cp_3_g-3_v4ur371wbdfd2-fill" stroke="none" fill="#fffbda"><g><path d="M 10 93.999097C 10 140.391297 47.6081 177.999297 94 177.999297C 137.183 177.999297 172.756 145.413297 177.47 103.489797C 130.879 93.812197 94.1869 57.119897 84.5093 10.529297C 42.5856 15.243497 10 50.815897 10 93.999097Z"></path></g></g></g><g id="g-root-cp_2_g-2_v4ur371wbdfd4-fill" data-item-order="-328294" transform="translate(398, 326)"><g id="cp_2_g-2_v4ur371wbdfd4-fill" stroke="none" fill="#f4ffdc"><g><path d="M 94.000073 177.999297C 140.392273 177.999297 178.000273 140.391297 178.000273 93.999097C 178.000273 50.815897 145.414273 15.243597 103.490773 10.529297C 93.813173 57.119897 57.120873 93.812197 10.530273 103.489797C 15.244473 145.413297 50.816873 177.999297 94.000073 177.999297Z"></path></g></g></g><g id="g-root-cp_1_g-1_v4ur371wbdfd6-fill" data-item-order="-328288" transform="translate(398, 110)"><g id="cp_1_g-1_v4ur371wbdfd6-fill" stroke="none" fill="#e3fff2"><g><path d="M 178.000212 94C 178.000212 47.6081 140.392212 10 94.000012 10C 50.816812 10 15.244412 42.5856 10.530212 84.5093C 57.120812 94.1869 93.813112 130.879 103.490712 177.47C 145.414212 172.756 178.000212 137.183 178.000212 94Z"></path></g></g></g><g id="g-root-tx_digitali_qp18yr1wbdg5g-fill" data-item-order="0" transform="translate(236, 38)"><g id="tx_digitali_qp18yr1wbdg5g-fill" stroke="none" fill="#484848"><g><text style="font-style: normal; font-variant-caps: normal; font-weight: normal; font-width: normal; font-size: 20px; line-height: normal; font-family: Roboto, sans-serif; font-size-adjust: none; font-kerning: auto; font-variant-alternates: normal; font-variant-ligatures: normal; font-variant-numeric: normal; font-variant-east-asian: normal; font-variant-position: normal; font-variant-emoji: normal; font-feature-settings: normal; font-optical-sizing: auto; font-variation-settings: normal; white-space: pre;"><tspan x="16.53" y="34" dominant-baseline="ideographic">Digital Infrastructure at Scale </tspan><tspan x="95.53" y="58" dominant-baseline="ideographic">Framework</tspan></text></g></g></g><g id="g-root-tx_changema_m7yso31wbes5m-fill" data-item-order="0" transform="translate(14, 128)"><g id="tx_changema_m7yso31wbes5m-fill" stroke="none" fill="#de8431"><g><text style="font-style: normal; font-variant-caps: normal; font-weight: bold; font-width: normal; font-size: 20px; line-height: normal; font-family: Roboto, sans-serif; font-size-adjust: none; font-kerning: auto; font-variant-alternates: normal; font-variant-ligatures: normal; font-variant-numeric: normal; font-variant-east-asian: normal; font-variant-position: normal; font-variant-emoji: normal; font-feature-settings: normal; font-optical-sizing: auto; font-variation-settings: normal; white-space: pre;"><tspan x="71" y="34" dominant-baseline="ideographic">Change </tspan><tspan x="21" y="58" dominant-baseline="ideographic">Management</tspan></text></g></g></g><g id="g-root-tx_valuecre_1cxdpr71wbetc0-fill" data-item-order="0" transform="translate(590, 128)"><g id="tx_valuecre_1cxdpr71wbetc0-fill" stroke="none" fill="#3cc583"><g><text style="font-style: normal; font-variant-caps: normal; font-weight: bold; font-width: normal; font-size: 20px; line-height: normal; font-family: Roboto, sans-serif; font-size-adjust: none; font-kerning: auto; font-variant-alternates: normal; font-variant-ligatures: normal; font-variant-numeric: normal; font-variant-east-asian: normal; font-variant-position: normal; font-variant-emoji: normal; font-feature-settings: normal; font-optical-sizing: auto; font-variation-settings: normal; white-space: pre;"><tspan x="12" y="34" dominant-baseline="ideographic">Value Creation</tspan></text></g></g></g><g id="g-root-ic_arro_me7jj71wbdgcg-fill" data-item-order="0" transform="translate(224, 152)"></g><g id="g-root-ic_cart_1cxdpr71wbdf66-fill" data-item-order="0" transform="translate(476, 152)"></g><g id="g-root-tx_focuseso_mb363n1wbetc1-fill" data-item-order="0" transform="translate(590, 164)"><g id="tx_focuseso_mb363n1wbetc1-fill" stroke="none" fill="#484848"><g><text style="font-style: normal; font-variant-caps: normal; font-weight: normal; font-width: normal; font-size: 15px; line-height: normal; font-family: Roboto, sans-serif; font-size-adjust: none; font-kerning: auto; font-variant-alternates: normal; font-variant-ligatures: normal; font-variant-numeric: normal; font-variant-east-asian: normal; font-variant-position: normal; font-variant-emoji: normal; font-feature-settings: normal; font-optical-sizing: auto; font-variation-settings: normal; white-space: pre;"><tspan x="12" y="31" dominant-baseline="ideographic">Focuses on service </tspan><tspan x="12" y="49" dominant-baseline="ideographic">delivery and </tspan><tspan x="12" y="67" dominant-baseline="ideographic">economic models.</tspan></text></g></g></g><g id="g-root-tx_addresse_4gos6b1wbeuir-fill" data-item-order="0" transform="translate(14, 188)"><g id="tx_addresse_4gos6b1wbeuir-fill" stroke="none" fill="#484848"><g><text style="font-style: normal; font-variant-caps: normal; font-weight: normal; font-width: normal; font-size: 15px; line-height: normal; font-family: Roboto, sans-serif; font-size-adjust: none; font-kerning: auto; font-variant-alternates: normal; font-variant-ligatures: normal; font-variant-numeric: normal; font-variant-east-asian: normal; font-variant-position: normal; font-variant-emoji: normal; font-feature-settings: normal; font-optical-sizing: auto; font-variation-settings: normal; white-space: pre;"><tspan x="16" y="28" dominant-baseline="ideographic">Addresses evolution </tspan><tspan x="17" y="46" dominant-baseline="ideographic">and feedback loops.</tspan></text></g></g></g><g id="g-root-tx_digitali_2qpb71wbdg5h-fill" data-item-order="0" transform="translate(296, 278)"><g id="tx_digitali_2qpb71wbdg5h-fill" stroke="none" fill="#969696"><g><text style="font-style: normal; font-variant-caps: normal; font-weight: bold; font-width: normal; font-size: 20px; line-height: normal; font-family: Roboto, sans-serif; font-size-adjust: none; font-kerning: auto; font-variant-alternates: normal; font-variant-ligatures: normal; font-variant-numeric: normal; font-variant-east-asian: normal; font-variant-position: normal; font-variant-emoji: normal; font-feature-settings: normal; font-optical-sizing: auto; font-variation-settings: normal; white-space: pre;"><tspan x="17.5" y="34" dominant-baseline="ideographic">Promise-based </tspan><tspan x="32.5" y="58" dominant-baseline="ideographic">interactions</tspan></text></g></g></g><g id="g-root-tx_riskmana_1hbbsmb1wbetjg-fill" data-item-order="0" transform="translate(14, 368)"><g id="tx_riskmana_1hbbsmb1wbetjg-fill" stroke="none" fill="#e0cb15"><g><text style="font-style: normal; font-variant-caps: normal; font-weight: bold; font-width: normal; font-size: 20px; line-height: normal; font-family: Roboto, sans-serif; font-size-adjust: none; font-kerning: auto; font-variant-alternates: normal; font-variant-ligatures: normal; font-variant-numeric: normal; font-variant-east-asian: normal; font-variant-position: normal; font-variant-emoji: normal; font-feature-settings: normal; font-optical-sizing: auto; font-variation-settings: normal; white-space: pre;"><tspan x="100" y="34" dominant-baseline="ideographic">Risk </tspan><tspan x="21" y="58" dominant-baseline="ideographic">Management</tspan></text></g></g></g><g id="g-root-tx_powerdis_de77oj1wberym-fill" data-item-order="0" transform="translate(590, 362)"><g id="tx_powerdis_de77oj1wberym-fill" stroke="none" fill="#92bd39"><g><text style="font-style: normal; font-variant-caps: normal; font-weight: bold; font-width: normal; font-size: 20px; line-height: normal; font-family: Roboto, sans-serif; font-size-adjust: none; font-kerning: auto; font-variant-alternates: normal; font-variant-ligatures: normal; font-variant-numeric: normal; font-variant-east-asian: normal; font-variant-position: normal; font-variant-emoji: normal; font-feature-settings: normal; font-optical-sizing: auto; font-variation-settings: normal; white-space: pre;"><tspan x="12" y="34" dominant-baseline="ideographic">Power </tspan><tspan x="12" y="58" dominant-baseline="ideographic">Distribution</tspan></text></g></g></g><g id="g-root-ic_fort_145hk0z1wbddzb-fill" data-item-order="0" transform="translate(224, 404)"></g><g id="g-root-ic_uneq_1ut11ur1wbdg5d-fill" data-item-order="0" transform="translate(476, 404)"></g><g id="g-root-tx_analyzes_zko97n1wbesqt-fill" data-item-order="0" transform="translate(14, 428)"><g id="tx_analyzes_zko97n1wbesqt-fill" stroke="none" fill="#484848"><g><text style="font-style: normal; font-variant-caps: normal; font-weight: normal; font-width: normal; font-size: 15px; line-height: normal; font-family: Roboto, sans-serif; font-size-adjust: none; font-kerning: auto; font-variant-alternates: normal; font-variant-ligatures: normal; font-variant-numeric: normal; font-variant-east-asian: normal; font-variant-position: normal; font-variant-emoji: normal; font-feature-settings: normal; font-optical-sizing: auto; font-variation-settings: normal; white-space: pre;"><tspan x="80" y="31" dominant-baseline="ideographic">Analyzes </tspan><tspan x="19" y="49" dominant-baseline="ideographic">vulnerabilities and </tspan><tspan x="14" y="67" dominant-baseline="ideographic">trust assumptions.</tspan></text></g></g></g><g id="g-root-tx_dealswit_1uo195v1wbeu4n-fill" data-item-order="0" transform="translate(590, 422)"><g id="tx_dealswit_1uo195v1wbeu4n-fill" stroke="none" fill="#484848"><g><text style="font-style: normal; font-variant-caps: normal; font-weight: normal; font-width: normal; font-size: 15px; line-height: normal; font-family: Roboto, sans-serif; font-size-adjust: none; font-kerning: auto; font-variant-alternates: normal; font-variant-ligatures: normal; font-variant-numeric: normal; font-variant-east-asian: normal; font-variant-position: normal; font-variant-emoji: normal; font-feature-settings: normal; font-optical-sizing: auto; font-variation-settings: normal; white-space: pre;"><tspan x="12" y="28" dominant-baseline="ideographic">Deals with </tspan><tspan x="12" y="46" dominant-baseline="ideographic">governance and </tspan><tspan x="12" y="64" dominant-baseline="ideographic">enforcement of </tspan><tspan x="12" y="82" dominant-baseline="ideographic">promises.</tspan></text></g></g></g><g id="g-root-cp_0_g-0_zko97n1wbdekq-stroke" data-item-order="-328310" transform="translate(254, 182)"><g id="cp_0_g-0_zko97n1wbdekq-stroke" fill="none" stroke-linecap="round" stroke-linejoin="round" stroke-miterlimit="4" stroke="#969696" stroke-width="2"><g><path d="M 250 130C 250 196.2742 196.2742 250 130 250C 63.7258 250 10 196.2742 10 130C 10 63.7258 63.7258 10 130 10C 196.2742 10 250 63.7258 250 130Z"></path></g></g></g><g id="g-root-cp_4_g-4_zko97n1wbdeks-stroke" data-item-order="-328306" transform="translate(182, 110)"><g id="cp_4_g-4_zko97n1wbdeks-stroke" fill="none" stroke-linecap="round" stroke-linejoin="round" stroke-miterlimit="4" stroke="#de8431" stroke-width="2"><g><path d="M 94 10C 47.6081 10 10 47.6081 10 94C 10 137.1832 42.5856 172.7555 84.5093 177.4698C 94.1869 130.8792 130.8792 94.1869 177.4698 84.5093C 172.7555 42.5856 137.1832 10 94 10ZM 93.999977 178.000466C 140.391877 178.000466 177.999977 140.392366 177.999977 94.000466C 177.999977 90.791666 177.820077 87.624966 177.469777 84.509766C 130.879177 94.187366 94.186877 130.879666 84.509277 177.470266C 87.624477 177.820566 90.791177 178.000466 93.999977 178.000466Z"></path></g></g></g><g id="g-root-cp_3_g-3_v4ur371wbdfd2-stroke" data-item-order="-328300" transform="translate(182, 326)"><g id="cp_3_g-3_v4ur371wbdfd2-stroke" fill="none" stroke-linecap="round" stroke-linejoin="round" stroke-miterlimit="4" stroke="#e0cb15" stroke-width="2"><g><path d="M 10 93.999097C 10 140.390997 47.6081 177.999097 94 177.999097C 137.1832 177.999097 172.7555 145.413497 177.4698 103.489797C 130.8792 93.812197 94.1869 57.119897 84.5093 10.529297C 42.5856 15.243497 10 50.815897 10 93.999097ZM 178.000015 94C 178.000015 47.6081 140.391915 10 94.000015 10C 90.791215 10 87.624515 10.1799 84.509315 10.5302C 94.186915 57.1208 130.879215 93.8131 177.469815 103.4907C 177.820115 100.3755 178.000015 97.2088 178.000015 94Z"></path></g></g></g><g id="g-root-cp_2_g-2_v4ur371wbdfd4-stroke" data-item-order="-328294" transform="translate(398, 326)"><g id="cp_2_g-2_v4ur371wbdfd4-stroke" fill="none" stroke-linecap="round" stroke-linejoin="round" stroke-miterlimit="4" stroke="#92bd39" stroke-width="2"><g><path d="M 94.000073 177.999097C 140.391973 177.999097 178.000073 140.390997 178.000073 93.999097C 178.000073 50.815897 145.414473 15.243497 103.490773 10.529297C 93.813173 57.119897 57.120873 93.812197 10.530273 103.489797C 15.244473 145.413497 50.816873 177.999097 94.000073 177.999097ZM 94 10C 47.6081 10 10 47.6081 10 94C 10 97.2088 10.1799 100.3755 10.5302 103.4907C 57.1208 93.8131 93.8131 57.1208 103.4907 10.5302C 100.3755 10.1799 97.2088 10 94 10Z"></path></g></g></g><g id="g-root-cp_1_g-1_v4ur371wbdfd6-stroke" data-item-order="-328288" transform="translate(398, 110)"><g id="cp_1_g-1_v4ur371wbdfd6-stroke" fill="none" stroke-linecap="round" stroke-linejoin="round" stroke-miterlimit="4" stroke="#3cc583" stroke-width="2"><g><path d="M 178.000012 94C 178.000012 47.6081 140.391912 10 94.000012 10C 50.816812 10 15.244412 42.5856 10.530212 84.5093C 57.120812 94.1869 93.813112 130.8792 103.490712 177.4698C 145.414412 172.7555 178.000012 137.1832 178.000012 94ZM 10 94.000466C 10 140.392366 47.6081 178.000466 94 178.000466C 97.2088 178.000466 100.3755 177.820566 103.4907 177.470266C 93.8131 130.879666 57.1208 94.187366 10.5302 84.509766C 10.1799 87.624966 10 90.791666 10 94.000466Z"></path></g></g></g><g id="g-root-tx_digitali_qp18yr1wbdg5g-stroke" data-item-order="0" transform="translate(236, 38)"></g><g id="g-root-tx_changema_m7yso31wbes5m-stroke" data-item-order="0" transform="translate(14, 128)"></g><g id="g-root-tx_valuecre_1cxdpr71wbetc0-stroke" data-item-order="0" transform="translate(590, 128)"></g><g id="g-root-ic_arro_me7jj71wbdgcg-stroke" data-item-order="0" transform="translate(224, 152)"><g id="ic_arro_me7jj71wbdgcg-stroke" fill="none" stroke-linecap="round" stroke-linejoin="round" stroke-miterlimit="4" stroke="#de8431" stroke-width="2"><g><path d="M 44.066002 44C 44.065998 46.300819 45.931183 48.166 48.231998 48.166C 50.532818 48.166 52.397999 46.300819 52.397999 44C 52.397999 41.699181 50.532818 39.834 48.231998 39.834C 45.931183 39.834 44.065998 41.699181 44.065998 44M 45.453999 56.5L 56.563999 56.5C 55.899048 53.89912 54.057701 51.757942 51.585693 50.711067C 49.113686 49.664192 46.294624 49.831722 43.964001 51.164001M 15.602 44C 15.602 46.300819 17.467182 48.166 19.768 48.166C 22.068817 48.166 23.934 46.300819 23.934 44C 23.934 41.699181 22.068817 39.834 19.768 39.834C 17.467182 39.834 15.602 41.699181 15.602 44M 22.487999 56.5L 11.436 56.5C 12.098295 53.912041 13.925614 51.778793 16.381168 50.726917C 18.836721 49.675037 21.641655 49.823986 23.972 51.130005M 44.158001 56.5C 44.209476 52.827229 42.279564 49.411205 39.107155 47.559803C 35.934746 45.708397 32.011253 45.708397 28.838844 47.559803C 25.666435 49.411205 23.736523 52.827229 23.787998 56.499996ZM 28.684 34.461998C 31.572502 37.455845 36.012802 38.348686 39.834 36.704002M 27.85 37.517998C 27.85 40.841652 30.544352 43.536003 33.868004 43.536003C 37.19165 43.536003 39.886002 40.841652 39.886002 37.518002C 39.886002 34.194351 37.19165 31.500002 33.868004 31.500002C 30.544352 31.500002 27.85 34.194351 27.85 37.518002M 46.972 35.5C 46.972 35.5 40.972 29.5 40.972 24.5L 49.972 24.5L 33.972 11.5L 17.972 24.5L 26.972 24.5C 26.972 29.5 20.972 35.5 20.972 35.5"></path></g></g></g><g id="g-root-ic_cart_1cxdpr71wbdf66-stroke" data-item-order="0" transform="translate(476, 152)"><g id="ic_cart_1cxdpr71wbdf66-stroke" fill="none" stroke-linecap="round" stroke-linejoin="round" stroke-miterlimit="4" stroke="#3cc583" stroke-width="2"><g><path d="M 57 57L 48 48M 44.094002 52.799999C 44.247486 53.172306 44.609318 53.416222 45.012012 53.418842C 45.414707 53.421463 45.779682 53.182278 45.938 52.812L 48 48L 52.812 45.938C 53.182278 45.779682 53.421463 45.414707 53.418842 45.012012C 53.416222 44.609318 53.172306 44.247486 52.799999 44.094002L 40.220001 38.914001C 39.846512 38.75975 39.416901 38.84544 39.131172 39.131172C 38.84544 39.416901 38.75975 39.846512 38.914001 40.220001ZM 30 37C 30 38.104568 30.89543 39 32 39C 33.104568 39 34 38.104568 34 37C 34 35.895432 33.104568 35 32 35C 30.89543 35 30 35.895432 30 37ZM 22 37C 22 38.104568 22.895432 39 24 39C 25.104568 39 26 38.104568 26 37C 26 35.895432 25.104568 35 24 35C 22.895432 35 22 35.895432 22 37ZM 38 18L 33 33L 23 33L 20 23L 36.334 23M 35.542 45.773998C 27.540775 48.891232 18.451937 45.918385 13.83942 38.675362C 9.226904 31.432333 10.377058 21.939075 16.585789 16.007095C 22.794521 10.075114 32.330326 9.358733 39.355652 14.296501C 46.380978 19.234268 48.936584 28.449129 45.458004 36.300003"></path></g></g></g><g id="g-root-tx_focuseso_mb363n1wbetc1-stroke" data-item-order="0" transform="translate(590, 164)"></g><g id="g-root-tx_addresse_4gos6b1wbeuir-stroke" data-item-order="0" transform="translate(14, 188)"></g><g id="g-root-tx_digitali_2qpb71wbdg5h-stroke" data-item-order="0" transform="translate(296, 278)"></g><g id="g-root-tx_riskmana_1hbbsmb1wbetjg-stroke" data-item-order="0" transform="translate(14, 368)"></g><g id="g-root-tx_powerdis_de77oj1wberym-stroke" data-item-order="0" transform="translate(590, 362)"></g><g id="g-root-ic_fort_145hk0z1wbddzb-stroke" data-item-order="0" transform="translate(224, 404)"><g id="ic_fort_145hk0z1wbddzb-stroke" fill="none" stroke-linecap="round" stroke-linejoin="round" stroke-miterlimit="4" stroke="#e0cb15" stroke-width="2"><g><path d="M 18.496 50L 18.496 44.827999C 18.496113 44.297611 18.706902 43.788986 19.082001 43.414001L 31.91 30.586C 32.284985 30.210901 32.79361 30.000113 33.323997 30L 50.667999 30C 51.198391 30.000113 51.707016 30.210901 52.082001 30.586L 55.91 34.414001C 56.285099 34.788986 56.495888 35.297611 56.495998 35.827999L 56.495998 53L 42.981998 53M 26.496 36L 42.495998 36C 43.600571 36 44.495998 36.895432 44.495998 38C 44.495998 39.104568 43.600571 40 42.495998 40L 22.496 40M 42.495998 30L 42.495998 12M 42.495998 12L 48.495998 12L 48.495998 18L 42.495998 18M 48.495998 14L 54.495998 14L 52.495998 17L 54.495998 20L 48.495998 20L 48.495998 18M 44.495998 53L 44.495998 46C 44.495998 44.895432 45.39143 44 46.495998 44L 48.495998 44L 48.495998 53M 48.495998 44L 50.495998 44C 51.600571 44 52.495998 44.895432 52.495998 46L 52.495998 53M 25 53.5C 24.031893 55.053783 22.330704 55.998215 20.5 55.998215C 18.669294 55.998215 16.968107 55.053783 16 53.5M 34 53.5C 33.031891 55.053783 31.330706 55.998215 29.5 55.998215C 27.669294 55.998215 25.968105 55.053783 25 53.5M 38.487999 56C 36.65313 56.000359 34.948601 55.051636 33.982002 53.492001M 16 53.5C 15.033895 55.054123 13.333933 55.999386 11.504 56"></path></g></g></g><g id="g-root-ic_uneq_1ut11ur1wbdg5d-stroke" data-item-order="0" transform="translate(476, 404)"><g id="ic_uneq_1ut11ur1wbdg5d-stroke" fill="none" stroke-linecap="round" stroke-linejoin="round" stroke-miterlimit="4" stroke="#92bd39" stroke-width="2"><g><path d="M 34 23.364L 34 54.363998M 29 54.363998L 39 54.363998M 12 42.363998L 19 27.436001L 26 42.363998M 31 20.364C 31 22.020855 32.343147 23.364 34 23.364C 35.656853 23.364 37 22.020855 37 20.364C 37 18.707146 35.656853 17.364 34 17.364C 32.343147 17.364 31 18.707146 31 20.364ZM 19 49.363998C 20.870407 49.410587 22.678082 48.688061 24.001072 47.36507C 25.32406 46.042084 26.046587 44.234409 26 42.363998L 12 42.363998C 11.953412 44.234409 12.67594 46.042084 13.998928 47.36507C 15.321917 48.688061 17.129591 49.410587 19 49.363998ZM 56 30.364L 49 15.298L 42 30.364M 49 37.363998C 47.129589 37.410587 45.321915 36.688061 43.998928 35.36507C 42.675938 34.042084 41.953411 32.234406 42 30.363998L 56 30.364C 56.046585 32.234406 55.324059 34.042084 54.001072 35.36507C 52.678082 36.688061 50.870407 37.410587 49 37.363998ZM 36.987999 20.156L 53.110001 13.636M 14.892 29.094L 31.73 22.282"></path></g></g></g><g id="g-root-tx_analyzes_zko97n1wbesqt-stroke" data-item-order="0" transform="translate(14, 428)"></g><g id="g-root-tx_dealswit_1uo195v1wbeu4n-stroke" data-item-order="0" transform="translate(590, 422)"></g></g></g><path id="w1q87o0j29z8qq" d="M65.283 12.757a.35.35 0 0 0 .584.157l5.203-5.141-6.183 3.523.396 1.461zm-2.216-11.7a.35.35 0 0 0-.522.305v3.111l3.276-1.868-2.754-1.548zm3.728 2.105l-4.25 2.421v2.445l6.391-3.644-2.141-1.222zm4.708 3.303a.35.35 0 0 0 0-.609l-1.592-.9-7.365 4.199v1.782a.35.35 0 0 0 .523.305l8.435-4.777z M44.542 2.513c0-.433.355-.783.792-.783s.792.35.792.783-.355.783-.792.783-.792-.35-.792-.783zm59.171 0c0-.433.355-.783.792-.783s.792.35.792.783-.355.783-.792.783-.792-.35-.792-.783zm-85.951 7.636h-1.27v-.487c-.276.201-.864.609-1.881.609-1.202 0-2.274-.794-2.137-2.078.118-1.106 1.153-1.584 1.848-1.727l2.17-.345c0-.539-.29-.956-1.064-1.006s-1.21.305-1.571 1.017l-1.124-.605c1.218-2.631 5.029-1.764 5.029.414v4.207zm-1.27-2.86c.006.396-.062 1.112-.819 1.59-.587.37-1.841.299-1.903-.395-.049-.555.461-.791.906-.898l1.816-.297zm72.662 2.86h-1.27v-.487c-.276.201-.864.609-1.881.609-1.202 0-2.274-.794-2.137-2.078.118-1.106 1.153-1.584 1.848-1.727l2.17-.345c0-.539-.29-.956-1.064-1.006s-1.21.305-1.571 1.017l-1.124-.605c1.218-2.631 5.029-1.764 5.029.414v4.207zm-1.27-2.86c.006.396-.062 1.112-.82 1.59-.587.37-1.841.299-1.903-.395-.049-.555.461-.791.906-.898l1.816-.297zM99.096 10.149H97.85v-8.45h1.246v4.895l2.68-2.559h1.738l-2.633 2.535 2.715 3.578h-1.556l-2.077-2.707-.867.844v1.863zm6.053-6.114h-1.255v6.113h1.255V4.035zm-59.2 0h-1.255v6.113h1.255V4.035zm5.584 6.113V1.697h1.255v2.695c.361-.346 1-.485 1.47-.485 1.452 0 2.477 1.082 2.457 2.448v3.792h-1.27v-3.68c0-.408-.214-1.339-1.315-1.339-.968 0-1.342.756-1.342 1.339v3.681h-1.255zm-4.76-4.894V4.039h.621a.45.45 0 0 0 .45-.45v-.855h1.251v1.305h1.309v1.215h-1.309v3.109c0 .293.105.664.648.664.365 0 .531-.035.736-.07v1.137s-.361.113-.857.113c-1.398 0-1.777-1.051-1.777-1.788V5.254h-1.071zM36.528 4.039h-1.394l2.191 6.106h1.125l1.234-3.918 1.238 3.918h1.129l2.188-6.106h-1.383l-1.359 3.93-1.256-3.93h-1.124l-1.242 3.957-1.348-3.957zM26.212 7.141c-.02 1.566 1.187 3.129 3.223 3.129 1.566 0 2.383-.918 2.734-1.719L31.172 8c-.315.399-.801 1.094-1.738 1.094-1.145 0-1.825-.781-1.891-1.52h4.625c.074-.284.148-.995-.03-1.559-.336-1.064-1.221-2.102-2.839-2.102s-3.088 1.152-3.088 3.227zm1.363-.75h3.348c-.055-.43-.566-1.301-1.623-1.301a1.79 1.79 0 0 0-1.725 1.301zm-8.758.75c.038 1.758 1.277 3.133 3.145 3.133 1.074 0 1.723-.477 1.961-.672v.547h1.242V1.703h-1.258v2.888c-.414-.36-1.062-.68-1.93-.68-1.91 0-3.198 1.473-3.16 3.23zm1.309-.08c0 1.119.723 1.978 1.836 1.978a1.88 1.88 0 0 0 1.94-1.904c0-1.371-1.011-1.99-1.972-1.99s-1.805.798-1.805 1.916zm76.683-.028C96.771 5.275 95.532 3.9 93.664 3.9c-1.074 0-1.723.477-1.961.672v-.547h-1.242v8.22h1.258V9.583c.414.36 1.063.68 1.93.68 1.91 0 3.198-1.473 3.16-3.23zm-1.309.08c0-1.119-.723-1.978-1.836-1.978a1.88 1.88 0 0 0-1.94 1.904c0 1.371 1.011 1.99 1.972 1.99S95.5 8.231 95.5 7.113zM106.441 10.173V4.036h1.254v.382c.361-.346 1-.485 1.47-.485 1.452 0 2.477 1.082 2.457 2.448v3.792h-1.27V6.492c0-.408-.214-1.339-1.315-1.339-.969 0-1.342.756-1.342 1.339v3.681h-1.254zm-30.383-.021V1.824h1.084l4.215 5.777V1.824h1.32v8.328h-1.094l-4.207-5.796v5.796h-1.319zM5.24 10.149H4V2.377h1.014l2.664 3.597 2.654-3.592h1.03v7.766h-1.256V4.762L7.678 8.068 5.24 4.742v5.407z" transform="translate(13, 535)" fill="#80808088" stroke="none"></path></svg>